<?xml version="1.0" standalone="no"?>
<!DOCTYPE svg PUBLIC "-//W3C//DTD SVG 20010904//EN"
 "http://www.w3.org/TR/2001/REC-SVG-20010904/DTD/svg10.dtd">
<svg version="1.0" xmlns="http://www.w3.org/2000/svg"
 width="767.000000pt" height="767.000000pt" viewBox="0 0 767.000000 767.000000"
 preserveAspectRatio="xMidYMid meet">
<metadata>
Created by potrace 1.11, written by Peter Selinger 2001-2013
</metadata>
<g transform="translate(0.000000,767.000000) scale(0.100000,-0.100000)"
fill="#000000" stroke="none">
<path d="M5799 5275 c-3 -2 -27 -6 -54 -9 -111 -13 -278 -56 -372 -97 -40 -17
-43 -17 -43 -1 0 19 -3 20 -340 25 -113 2 -212 0 -221 -4 -14 -7 -57 -83 -65
-114 -2 -9 -189 -427 -228 -510 -8 -16 -21 -46 -29 -65 -9 -19 -31 -69 -50
-110 -19 -41 -58 -129 -87 -195 -70 -159 -205 -461 -254 -570 l-23 -50 -26 55
c-14 30 -45 98 -68 150 -22 52 -50 115 -61 140 -11 25 -28 63 -38 85 -10 22
-24 56 -33 75 -8 19 -106 240 -217 490 -111 250 -217 489 -235 530 l-34 75
-78 8 c-112 11 -254 10 -983 -8 -208 -5 -490 -12 -870 -20 -129 -3 -333 -7
-453 -10 -121 -3 -227 -9 -237 -15 -42 -22 -33 -95 13 -104 20 -5 74 -10 222
-21 33 -3 89 -7 125 -10 36 -3 92 -7 125 -9 89 -6 204 -16 255 -21 54 -6 149
-13 250 -20 41 -3 98 -7 125 -10 28 -2 86 -7 130 -10 44 -3 105 -8 135 -11 71
-8 116 -11 220 -18 47 -4 114 -9 150 -12 36 -3 85 -7 110 -9 288 -23 280 -22
287 -29 10 -10 -50 -10 -762 -1 -813 11 -780 12 -798 -4 -23 -18 -21 -64 3
-86 12 -11 39 -19 67 -21 27 -1 62 -5 78 -8 17 -2 62 -8 100 -12 139 -13 213
-21 275 -29 43 -5 103 -12 180 -19 19 -2 58 -6 85 -10 85 -10 196 -22 285 -30
72 -7 148 -16 182 -22 15 -2 53 -6 85 -9 32 -3 74 -7 93 -9 19 -3 69 -8 110
-12 41 -4 84 -8 95 -10 11 -1 25 -3 31 -3 7 -1 14 -8 18 -16 5 -13 -6 -14 -77
-10 -45 2 -129 7 -187 10 -58 3 -139 7 -180 10 -41 3 -131 7 -200 10 -185 9
-274 13 -385 20 -312 17 -291 18 -314 -10 -16 -21 -18 -31 -9 -55 5 -16 17
-31 26 -34 24 -6 92 -18 127 -22 17 -2 84 -12 150 -24 66 -11 138 -23 160 -26
61 -9 137 -22 178 -30 12 -2 39 -6 62 -9 22 -3 65 -10 95 -15 30 -5 71 -12 90
-15 19 -3 58 -10 85 -15 28 -5 73 -12 100 -16 28 -3 57 -7 65 -8 8 -2 38 -6
65 -11 28 -4 59 -9 70 -11 35 -7 74 -14 103 -18 110 -17 110 -17 121 -44 20
-50 18 -56 -14 -55 -141 7 -284 15 -355 18 -47 2 -125 7 -175 10 -108 6 -266
14 -390 19 -49 3 -146 7 -215 11 -117 6 -127 5 -144 -13 -25 -28 -18 -74 14
-89 14 -6 45 -14 70 -18 25 -3 68 -10 95 -15 28 -6 67 -12 89 -15 21 -2 46 -7
55 -9 9 -3 36 -8 61 -11 25 -2 56 -7 70 -10 13 -2 42 -7 65 -10 22 -3 78 -12
125 -20 47 -8 103 -16 125 -20 22 -3 47 -7 55 -10 8 -2 33 -6 55 -9 22 -3 51
-7 64 -10 12 -3 42 -8 65 -10 22 -3 79 -12 126 -20 47 -8 103 -18 125 -21 22
-3 72 -12 110 -18 l70 -12 26 -55 c47 -99 48 -98 -13 -94 -29 2 -105 6 -168 9
-63 3 -153 7 -200 9 -47 3 -141 7 -209 11 -69 3 -152 8 -185 10 -34 2 -119 7
-191 10 -71 4 -154 8 -183 9 -64 4 -94 -16 -95 -59 0 -32 28 -57 66 -60 35 -3
108 -14 162 -25 28 -5 68 -12 90 -15 22 -3 51 -8 65 -10 14 -2 79 -13 145 -24
66 -11 136 -23 155 -25 19 -3 53 -8 75 -11 22 -3 54 -8 70 -12 17 -3 39 -7 50
-9 31 -4 96 -14 300 -48 50 -8 104 -17 120 -19 118 -19 109 -14 138 -79 l26
-59 -177 6 c-97 4 -215 8 -262 10 -47 2 -157 6 -245 9 -88 4 -213 9 -279 11
-128 6 -158 -2 -169 -45 -7 -29 32 -69 70 -72 33 -1 38 -2 78 -11 17 -4 49 -9
73 -12 24 -3 53 -7 65 -10 12 -3 38 -8 57 -10 35 -4 77 -10 138 -20 17 -3 49
-8 70 -11 20 -3 48 -7 62 -9 14 -3 43 -7 65 -10 22 -4 94 -15 160 -25 66 -11
138 -22 159 -25 21 -3 48 -7 60 -10 12 -2 39 -6 61 -9 112 -14 126 -18 140
-47 22 -42 19 -46 -32 -43 -27 2 -102 6 -168 9 -125 6 -220 11 -365 19 -47 3
-134 8 -195 10 -60 3 -155 8 -210 11 -110 6 -129 0 -140 -46 -8 -31 24 -68 59
-70 12 -1 26 -2 31 -3 6 -1 33 -6 60 -10 28 -5 59 -10 70 -12 10 -2 37 -6 60
-9 39 -6 114 -18 185 -31 19 -3 49 -7 67 -9 18 -2 40 -6 50 -9 10 -2 36 -7 58
-11 22 -3 69 -10 105 -16 72 -12 105 -17 151 -23 17 -3 88 -14 157 -26 70 -11
141 -23 158 -26 32 -5 36 -10 78 -106 8 -18 26 -60 41 -92 15 -32 35 -78 45
-102 10 -23 30 -50 44 -59 22 -15 27 -15 48 -1 13 8 38 50 57 93 19 43 37 82
41 86 4 4 13 -11 20 -33 12 -36 30 -55 30 -31 0 5 20 53 45 106 25 54 57 124
71 156 13 33 39 90 56 127 17 37 32 69 33 72 0 3 13 32 28 65 16 33 47 103 70
155 23 52 53 120 68 150 l26 55 8 -35 c13 -60 120 -256 194 -354 39 -51 116
-137 172 -190 263 -250 562 -386 921 -420 20 -2 42 -7 49 -11 8 -6 10 -4 4 5
-6 9 -4 11 6 5 18 -12 131 -14 146 -3 7 5 14 5 18 -2 3 -6 11 -8 16 -4 5 3 35
7 67 10 56 3 117 12 157 21 11 2 36 7 55 10 122 19 397 129 445 178 17 16 50
41 74 55 l45 25 0 172 c1 94 4 175 9 179 13 13 8 81 -8 94 -15 13 -55 18 -146
19 l-57 1 14 39 c7 21 29 56 49 78 45 49 131 173 140 204 4 13 13 33 20 44 15
25 52 144 64 210 16 83 10 268 -11 357 -46 201 -172 401 -321 513 -21 15 -36
30 -34 32 3 2 28 -5 56 -17 91 -36 111 -24 120 70 l6 59 44 -20 c24 -10 46
-17 49 -14 7 6 8 375 2 385 -9 15 -197 86 -276 105 -10 3 -55 13 -99 24 -103
25 -164 34 -305 47 -74 7 -426 14 -431 9z m163 -486 c-4 -4 -25 -10 -47 -13
-54 -7 -158 -42 -227 -76 -31 -16 -59 -26 -62 -23 -12 13 -63 11 -83 -3 -16
-10 -23 -24 -23 -45 0 -25 -12 -43 -58 -88 -208 -201 -312 -493 -277 -779 18
-143 96 -330 183 -437 27 -34 49 -67 49 -75 0 -8 3 -34 7 -57 7 -38 6 -43 -11
-43 -11 0 -46 28 -79 63 -178 186 -267 404 -268 662 -1 280 89 506 278 699 81
82 181 140 296 172 55 15 142 33 179 38 24 3 45 7 47 8 1 2 25 3 53 3 28 1 47
-2 43 -6z m103 -165 l0 -99 -105 -1 c-58 0 -108 1 -112 3 -10 5 42 80 87 126
37 38 102 78 120 73 6 -1 10 -44 10 -102z m140 73 c41 -29 98 -92 123 -136
l20 -36 -108 -1 c-73 -1 -110 2 -113 10 -3 9 -1 184 2 194 2 7 48 -12 76 -31z
m-328 -11 c-14 -14 -46 -59 -73 -102 -45 -72 -48 -75 -57 -53 -5 13 -17 43
-27 65 l-18 41 50 24 c28 13 53 23 55 22 1 -1 17 4 35 12 49 21 62 18 35 -9z
m484 5 c30 -10 66 -24 81 -31 26 -12 26 -13 7 -34 -11 -11 -22 -31 -25 -43 -9
-33 -18 -29 -53 25 -16 26 -42 59 -56 75 -31 32 -25 33 46 8z m349 -217 c19
-22 50 -58 68 -81 37 -48 43 -43 -77 -68 -41 -8 -76 -13 -79 -11 -2 3 -13 1
-22 -4 -15 -8 -19 -5 -22 21 -3 16 -3 64 -2 107 2 65 6 79 24 94 21 17 23 17
49 -1 14 -10 42 -36 61 -57z m-1142 47 c9 -6 13 -32 11 -91 -2 -104 -7 -122
-28 -116 -9 3 -34 7 -56 11 -22 3 -57 10 -78 16 l-38 10 37 47 c44 55 121 132
132 132 4 0 13 -4 20 -9z m432 -120 c53 -2 61 -4 41 -12 -14 -5 -34 -11 -45
-14 -12 -2 -21 -4 -21 -5 0 0 -31 -11 -70 -24 l-70 -24 -28 26 c-15 14 -26 31
-24 37 5 13 49 21 107 19 25 -1 74 -2 110 -3z m-589 -124 c24 -8 46 -14 49
-14 80 -7 110 -16 110 -34 0 -10 -6 -19 -12 -20 -7 -1 -42 -2 -77 -4 -101 -4
-104 -10 -102 -243 l0 -52 -67 2 -67 3 2 52 c4 102 78 323 108 323 6 0 32 -6
56 -13z m1459 -34 c39 -86 66 -188 75 -275 l5 -56 -87 0 -88 0 -1 126 c-1 121
-2 127 -26 147 -20 17 -37 21 -97 21 -66 -1 -72 1 -69 19 2 13 11 20 28 21 14
1 41 5 60 9 19 4 44 9 55 11 46 7 80 15 84 20 2 2 12 4 22 4 12 0 25 -17 39
-47z m-860 -183 c0 -5 -8 -10 -17 -10 -15 0 -16 2 -3 10 19 12 20 12 20 0z
m340 0 c0 -5 -8 -10 -17 -10 -15 0 -16 2 -3 10 19 12 20 12 20 0z m-942 -222
c15 -6 47 -14 71 -17 44 -6 45 -7 46 -45 0 -32 -3 -40 -25 -49 -36 -15 -70
-48 -70 -67 0 -9 -3 -19 -6 -23 -3 -3 -8 -39 -11 -79 -2 -40 -5 -74 -7 -75 -1
-2 -16 -5 -32 -9 -27 -5 -31 -2 -57 50 -15 31 -27 64 -27 74 0 10 -4 22 -8 27
-17 19 -47 199 -37 215 8 13 132 11 163 -2z m1537 -47 c-12 -126 -82 -322
-114 -320 -9 0 -33 6 -54 12 l-39 12 -4 69 c-4 85 -28 136 -71 155 -23 10 -33
22 -34 38 -1 13 -2 31 -3 41 -1 13 9 18 44 22 25 3 54 11 65 17 11 6 62 11
118 11 l97 -1 -5 -56z m-140 -383 c2 -2 -7 -17 -21 -33 -14 -17 -30 -37 -34
-45 -12 -21 -18 -11 -20 35 -3 64 -3 64 36 55 19 -5 37 -10 39 -12z m-1384 -1
c-1 -4 -1 -16 -1 -28 0 -21 0 -21 -19 2 -14 17 -16 26 -8 31 14 9 29 6 28 -5z
m484 -422 c110 -27 338 -23 414 7 14 6 71 12 126 14 117 3 111 -4 -41 -54
-288 -95 -484 -88 -739 24 -22 10 -43 17 -47 16 -5 -1 -8 2 -8 8 0 15 218 4
295 -15z"/>
</g>
</svg>
